M48
; DRILL file {KiCad (5.1.5-0-10_14)} date Wednesday, 09 September 2020 at 12.21.20
; FORMAT={-:-/ absolute / metric / decimal}
; #@! TF.CreationDate,2020-09-09T12:21:20+02:00
; #@! TF.GenerationSoftware,Kicad,Pcbnew,(5.1.5-0-10_14)
; #@! TF.FileFunction,Plated,1,2,PTH
FMAT,2
METRIC
T1C0.500
T2C0.600
T3C0.760
T4C1.016
%
G90
G05
T1
X107.95Y-88.9
X123.19Y-50.8
X123.19Y-62.23
X125.095Y-64.77
X125.095Y-55.245
X127.0Y-91.44
X130.81Y-52.07
X130.81Y-62.23
X147.32Y-91.44
X148.59Y-82.55
X149.86Y-71.12
X161.29Y-91.44
X162.56Y-82.55
X171.45Y-71.12
X176.53Y-67.31
X176.53Y-78.74
X176.53Y-90.17
X178.519Y-52.07
X181.61Y-91.44
X182.88Y-82.55
X186.69Y-68.58
X189.23Y-68.58
X194.31Y-63.5
X195.58Y-66.04
X195.58Y-68.58
X195.58Y-71.12
X195.58Y-91.44
X196.85Y-63.5
X196.85Y-82.55
X199.39Y-80.01
X202.08Y-78.095
X204.47Y-59.69
X204.47Y-76.2
X208.28Y-66.04
X208.28Y-68.58
X208.28Y-71.12
X217.17Y-60.96
X217.17Y-82.55
X222.25Y-71.12
X222.25Y-78.74
X225.425Y-60.96
X229.87Y-96.52
X229.87Y-91.44
X231.14Y-82.55
X234.95Y-96.52
T2
X128.27Y-82.55
X210.185Y-88.9
T3
X113.03Y-88.9
X114.3Y-86.36
X115.57Y-88.9
X116.84Y-86.36
X118.11Y-88.9
X119.38Y-86.36
X120.65Y-88.9
X121.92Y-86.36
X127.0Y-88.9
X128.27Y-86.36
X129.54Y-88.9
X130.81Y-86.36
X132.08Y-88.9
X133.35Y-86.36
X134.62Y-88.9
X135.89Y-86.36
X215.9Y-88.9
X217.17Y-86.36
X218.44Y-88.9
X219.71Y-86.36
X220.98Y-88.9
X222.25Y-86.36
X223.52Y-88.9
X224.79Y-86.36
X229.87Y-88.9
X231.14Y-86.36
X232.41Y-88.9
X233.68Y-86.36
X234.95Y-88.9
X236.22Y-86.36
X237.49Y-88.9
X238.76Y-86.36
X181.61Y-88.9
X182.88Y-86.36
X184.15Y-88.9
X185.42Y-86.36
X186.69Y-88.9
X187.96Y-86.36
X189.23Y-88.9
X190.5Y-86.36
X195.58Y-88.9
X196.85Y-86.36
X198.12Y-88.9
X199.39Y-86.36
X200.66Y-88.9
X201.93Y-86.36
X203.2Y-88.9
X204.47Y-86.36
X147.32Y-88.9
X148.59Y-86.36
X149.86Y-88.9
X151.13Y-86.36
X152.4Y-88.9
X153.67Y-86.36
X154.94Y-88.9
X156.21Y-86.36
X161.29Y-88.9
X162.56Y-86.36
X163.83Y-88.9
X165.1Y-86.36
X166.37Y-88.9
X167.64Y-86.36
X168.91Y-88.9
X170.18Y-86.36
T4
X148.59Y-57.15
X148.59Y-59.69
X151.13Y-57.15
X151.13Y-59.69
X153.67Y-57.15
X153.67Y-59.69
X156.21Y-57.15
X156.21Y-59.69
X158.75Y-57.15
X158.75Y-59.69
X161.29Y-57.15
X161.29Y-59.69
X163.83Y-57.15
X163.83Y-59.69
X166.37Y-57.15
X166.37Y-59.69
X168.91Y-57.15
X168.91Y-59.69
X171.45Y-57.15
X171.45Y-59.69
X173.99Y-57.15
X173.99Y-59.69
X176.53Y-57.15
X176.53Y-59.69
X179.07Y-57.15
X179.07Y-59.69
X181.61Y-57.15
X181.61Y-59.69
X184.15Y-57.15
X184.15Y-59.69
X186.69Y-57.15
X186.69Y-59.69
X189.23Y-57.15
X189.23Y-59.69
X191.77Y-57.15
X191.77Y-59.69
X194.31Y-57.15
X194.31Y-59.69
X196.85Y-57.15
X196.85Y-59.69
T0
M30
