G04 #@! TF.GenerationSoftware,KiCad,Pcbnew,(5.1.5-0-10_14)*
G04 #@! TF.CreationDate,2020-09-01T14:48:47+02:00*
G04 #@! TF.ProjectId,8xrj45,3878726a-3435-42e6-9b69-6361645f7063,rev?*
G04 #@! TF.SameCoordinates,Original*
G04 #@! TF.FileFunction,Legend,Top*
G04 #@! TF.FilePolarity,Positive*
%FSLAX46Y46*%
G04 Gerber Fmt 4.6, Leading zero omitted, Abs format (unit mm)*
G04 Created by KiCad (PCBNEW (5.1.5-0-10_14)) date 2020-09-01 14:48:47*
%MOMM*%
%LPD*%
G04 APERTURE LIST*
%ADD10C,0.120000*%
%ADD11C,0.150000*%
G04 APERTURE END LIST*
D10*
X177610000Y-88400000D02*
X177610000Y-89400000D01*
X177610000Y-89400000D02*
X178110000Y-88900000D01*
X178110000Y-88900000D02*
X177610000Y-88400000D01*
X178295000Y-102980000D02*
X207785000Y-102980000D01*
X207785000Y-85020000D02*
X207785000Y-102980000D01*
X207785000Y-85020000D02*
X178295000Y-85020000D01*
X178295000Y-85020000D02*
X178295000Y-102980000D01*
X109030000Y-88400000D02*
X109030000Y-89400000D01*
X109030000Y-89400000D02*
X109530000Y-88900000D01*
X109530000Y-88900000D02*
X109030000Y-88400000D01*
X109715000Y-102980000D02*
X139205000Y-102980000D01*
X139205000Y-85020000D02*
X139205000Y-102980000D01*
X139205000Y-85020000D02*
X109715000Y-85020000D01*
X109715000Y-85020000D02*
X109715000Y-102980000D01*
X211900000Y-88400000D02*
X211900000Y-89400000D01*
X211900000Y-89400000D02*
X212400000Y-88900000D01*
X212400000Y-88900000D02*
X211900000Y-88400000D01*
X212585000Y-102980000D02*
X242075000Y-102980000D01*
X242075000Y-85020000D02*
X242075000Y-102980000D01*
X242075000Y-85020000D02*
X212585000Y-85020000D01*
X212585000Y-85020000D02*
X212585000Y-102980000D01*
X202450000Y-53495000D02*
X202450000Y-56035000D01*
X202450000Y-53495000D02*
X199910000Y-53495000D01*
X202200000Y-53745000D02*
X202200000Y-63095000D01*
X143240000Y-53745000D02*
X202200000Y-53745000D01*
X143240000Y-63095000D02*
X143240000Y-53745000D01*
X202200000Y-63095000D02*
X143240000Y-63095000D01*
X143320000Y-88400000D02*
X143320000Y-89400000D01*
X143320000Y-89400000D02*
X143820000Y-88900000D01*
X143820000Y-88900000D02*
X143320000Y-88400000D01*
X144005000Y-102980000D02*
X173495000Y-102980000D01*
X173495000Y-85020000D02*
X173495000Y-102980000D01*
X173495000Y-85020000D02*
X144005000Y-85020000D01*
X144005000Y-85020000D02*
X144005000Y-102980000D01*
D11*
X185594761Y-84224761D02*
X185499523Y-84272380D01*
X185309047Y-84272380D01*
X185213809Y-84224761D01*
X185166190Y-84177142D01*
X185118571Y-84081904D01*
X185118571Y-83796190D01*
X185166190Y-83700952D01*
X185213809Y-83653333D01*
X185309047Y-83605714D01*
X185499523Y-83605714D01*
X185594761Y-83653333D01*
X186499523Y-83272380D02*
X186023333Y-83272380D01*
X185975714Y-83748571D01*
X186023333Y-83700952D01*
X186118571Y-83653333D01*
X186356666Y-83653333D01*
X186451904Y-83700952D01*
X186499523Y-83748571D01*
X186547142Y-83843809D01*
X186547142Y-84081904D01*
X186499523Y-84177142D01*
X186451904Y-84224761D01*
X186356666Y-84272380D01*
X186118571Y-84272380D01*
X186023333Y-84224761D01*
X185975714Y-84177142D01*
X186737619Y-84367619D02*
X187499523Y-84367619D01*
X188166190Y-83272380D02*
X187975714Y-83272380D01*
X187880476Y-83320000D01*
X187832857Y-83367619D01*
X187737619Y-83510476D01*
X187690000Y-83700952D01*
X187690000Y-84081904D01*
X187737619Y-84177142D01*
X187785238Y-84224761D01*
X187880476Y-84272380D01*
X188070952Y-84272380D01*
X188166190Y-84224761D01*
X188213809Y-84177142D01*
X188261428Y-84081904D01*
X188261428Y-83843809D01*
X188213809Y-83748571D01*
X188166190Y-83700952D01*
X188070952Y-83653333D01*
X187880476Y-83653333D01*
X187785238Y-83700952D01*
X187737619Y-83748571D01*
X187690000Y-83843809D01*
X117014761Y-84224761D02*
X116919523Y-84272380D01*
X116729047Y-84272380D01*
X116633809Y-84224761D01*
X116586190Y-84177142D01*
X116538571Y-84081904D01*
X116538571Y-83796190D01*
X116586190Y-83700952D01*
X116633809Y-83653333D01*
X116729047Y-83605714D01*
X116919523Y-83605714D01*
X117014761Y-83653333D01*
X117967142Y-84272380D02*
X117395714Y-84272380D01*
X117681428Y-84272380D02*
X117681428Y-83272380D01*
X117586190Y-83415238D01*
X117490952Y-83510476D01*
X117395714Y-83558095D01*
X118157619Y-84367619D02*
X118919523Y-84367619D01*
X119110000Y-83367619D02*
X119157619Y-83320000D01*
X119252857Y-83272380D01*
X119490952Y-83272380D01*
X119586190Y-83320000D01*
X119633809Y-83367619D01*
X119681428Y-83462857D01*
X119681428Y-83558095D01*
X119633809Y-83700952D01*
X119062380Y-84272380D01*
X119681428Y-84272380D01*
X219884761Y-84224761D02*
X219789523Y-84272380D01*
X219599047Y-84272380D01*
X219503809Y-84224761D01*
X219456190Y-84177142D01*
X219408571Y-84081904D01*
X219408571Y-83796190D01*
X219456190Y-83700952D01*
X219503809Y-83653333D01*
X219599047Y-83605714D01*
X219789523Y-83605714D01*
X219884761Y-83653333D01*
X220218095Y-83272380D02*
X220884761Y-83272380D01*
X220456190Y-84272380D01*
X221027619Y-84367619D02*
X221789523Y-84367619D01*
X222170476Y-83700952D02*
X222075238Y-83653333D01*
X222027619Y-83605714D01*
X221980000Y-83510476D01*
X221980000Y-83462857D01*
X222027619Y-83367619D01*
X222075238Y-83320000D01*
X222170476Y-83272380D01*
X222360952Y-83272380D01*
X222456190Y-83320000D01*
X222503809Y-83367619D01*
X222551428Y-83462857D01*
X222551428Y-83510476D01*
X222503809Y-83605714D01*
X222456190Y-83653333D01*
X222360952Y-83700952D01*
X222170476Y-83700952D01*
X222075238Y-83748571D01*
X222027619Y-83796190D01*
X221980000Y-83891428D01*
X221980000Y-84081904D01*
X222027619Y-84177142D01*
X222075238Y-84224761D01*
X222170476Y-84272380D01*
X222360952Y-84272380D01*
X222456190Y-84224761D01*
X222503809Y-84177142D01*
X222551428Y-84081904D01*
X222551428Y-83891428D01*
X222503809Y-83796190D01*
X222456190Y-83748571D01*
X222360952Y-83700952D01*
X203239714Y-58896190D02*
X204096857Y-58896190D01*
X204192095Y-58943809D01*
X204239714Y-59039047D01*
X204239714Y-59086666D01*
X202906380Y-58896190D02*
X202954000Y-58943809D01*
X203001619Y-58896190D01*
X202954000Y-58848571D01*
X202906380Y-58896190D01*
X203001619Y-58896190D01*
X203906380Y-57896190D02*
X203906380Y-58467619D01*
X203906380Y-58181904D02*
X202906380Y-58181904D01*
X203049238Y-58277142D01*
X203144476Y-58372380D01*
X203192095Y-58467619D01*
X151304761Y-84224761D02*
X151209523Y-84272380D01*
X151019047Y-84272380D01*
X150923809Y-84224761D01*
X150876190Y-84177142D01*
X150828571Y-84081904D01*
X150828571Y-83796190D01*
X150876190Y-83700952D01*
X150923809Y-83653333D01*
X151019047Y-83605714D01*
X151209523Y-83605714D01*
X151304761Y-83653333D01*
X151638095Y-83272380D02*
X152257142Y-83272380D01*
X151923809Y-83653333D01*
X152066666Y-83653333D01*
X152161904Y-83700952D01*
X152209523Y-83748571D01*
X152257142Y-83843809D01*
X152257142Y-84081904D01*
X152209523Y-84177142D01*
X152161904Y-84224761D01*
X152066666Y-84272380D01*
X151780952Y-84272380D01*
X151685714Y-84224761D01*
X151638095Y-84177142D01*
X152447619Y-84367619D02*
X153209523Y-84367619D01*
X153876190Y-83605714D02*
X153876190Y-84272380D01*
X153638095Y-83224761D02*
X153400000Y-83939047D01*
X154019047Y-83939047D01*
M02*
