M48
; DRILL file {KiCad (5.1.5-0-10_14)} date Monday, 21 September 2020 at 09.08.54
; FORMAT={-:-/ absolute / metric / decimal}
; #@! TF.CreationDate,2020-09-21T09:08:54+02:00
; #@! TF.GenerationSoftware,Kicad,Pcbnew,(5.1.5-0-10_14)
; #@! TF.FileFunction,Plated,1,2,PTH
FMAT,2
METRIC
T1C0.500
T2C0.600
T3C0.760
T4C1.016
%
G90
G05
T1
X5.08Y-48.26
X20.32Y-10.16
X20.32Y-21.59
X22.225Y-24.13
X22.225Y-14.605
X24.13Y-50.8
X27.94Y-11.43
X27.94Y-21.59
X44.45Y-50.8
X45.72Y-41.91
X46.99Y-30.48
X58.42Y-50.8
X59.69Y-41.91
X68.58Y-30.48
X73.66Y-26.67
X73.66Y-38.1
X73.66Y-49.53
X75.649Y-11.43
X78.74Y-50.8
X80.01Y-41.91
X83.82Y-27.94
X86.36Y-27.94
X91.44Y-22.86
X92.71Y-25.4
X92.71Y-27.94
X92.71Y-30.48
X92.71Y-50.8
X93.98Y-22.86
X93.98Y-41.91
X96.52Y-39.37
X99.21Y-37.455
X101.6Y-19.05
X101.6Y-35.56
X105.41Y-25.4
X105.41Y-27.94
X105.41Y-30.48
X114.3Y-20.32
X114.3Y-41.91
X119.38Y-30.48
X119.38Y-38.1
X122.555Y-20.32
X127.0Y-55.88
X127.0Y-50.8
X128.27Y-41.91
X132.08Y-55.88
T2
X25.4Y-41.91
X107.315Y-48.26
T3
X113.03Y-48.26
X114.3Y-45.72
X115.57Y-48.26
X116.84Y-45.72
X118.11Y-48.26
X119.38Y-45.72
X120.65Y-48.26
X121.92Y-45.72
X127.0Y-48.26
X128.27Y-45.72
X129.54Y-48.26
X130.81Y-45.72
X132.08Y-48.26
X133.35Y-45.72
X134.62Y-48.26
X135.89Y-45.72
X10.16Y-48.26
X11.43Y-45.72
X12.7Y-48.26
X13.97Y-45.72
X15.24Y-48.26
X16.51Y-45.72
X17.78Y-48.26
X19.05Y-45.72
X24.13Y-48.26
X25.4Y-45.72
X26.67Y-48.26
X27.94Y-45.72
X29.21Y-48.26
X30.48Y-45.72
X31.75Y-48.26
X33.02Y-45.72
X44.45Y-48.26
X45.72Y-45.72
X46.99Y-48.26
X48.26Y-45.72
X49.53Y-48.26
X50.8Y-45.72
X52.07Y-48.26
X53.34Y-45.72
X58.42Y-48.26
X59.69Y-45.72
X60.96Y-48.26
X62.23Y-45.72
X63.5Y-48.26
X64.77Y-45.72
X66.04Y-48.26
X67.31Y-45.72
X78.74Y-48.26
X80.01Y-45.72
X81.28Y-48.26
X82.55Y-45.72
X83.82Y-48.26
X85.09Y-45.72
X86.36Y-48.26
X87.63Y-45.72
X92.71Y-48.26
X93.98Y-45.72
X95.25Y-48.26
X96.52Y-45.72
X97.79Y-48.26
X99.06Y-45.72
X100.33Y-48.26
X101.6Y-45.72
T4
X45.72Y-16.51
X45.72Y-19.05
X48.26Y-16.51
X48.26Y-19.05
X50.8Y-16.51
X50.8Y-19.05
X53.34Y-16.51
X53.34Y-19.05
X55.88Y-16.51
X55.88Y-19.05
X58.42Y-16.51
X58.42Y-19.05
X60.96Y-16.51
X60.96Y-19.05
X63.5Y-16.51
X63.5Y-19.05
X66.04Y-16.51
X66.04Y-19.05
X68.58Y-16.51
X68.58Y-19.05
X71.12Y-16.51
X71.12Y-19.05
X73.66Y-16.51
X73.66Y-19.05
X76.2Y-16.51
X76.2Y-19.05
X78.74Y-16.51
X78.74Y-19.05
X81.28Y-16.51
X81.28Y-19.05
X83.82Y-16.51
X83.82Y-19.05
X86.36Y-16.51
X86.36Y-19.05
X88.9Y-16.51
X88.9Y-19.05
X91.44Y-16.51
X91.44Y-19.05
X93.98Y-16.51
X93.98Y-19.05
T0
M30
