<?xml version="1.0" encoding="UTF-8"?>
<svg xmlns="http://www.w3.org/2000/svg" width="307.300mm" height="126.300mm" viewBox="-751.650024 385.850006 307.299988 126.300018">
    <rect transform="matrix(-1,0,0,1,-623.650024,498.75)" style="stroke:#000000;stroke-width:0.05mm;fill:none" x="-14.5" y="-6" width="29" height="12"/>
    <rect transform="matrix(-1,0,0,1,-692.450012,498.75)" style="stroke:#000000;stroke-width:0.05mm;fill:none" x="-14.5" y="-6" width="29" height="12"/>
    <rect transform="matrix(-1,0,0,1,-726.849976,498.75)" style="stroke:#000000;stroke-width:0.05mm;fill:none" x="-14.5" y="-6" width="29" height="12"/>
    <rect transform="matrix(-1,0,0,1,-658.049988,498.75)" style="stroke:#000000;stroke-width:0.05mm;fill:none" x="-14.5" y="-6" width="29" height="12"/>
    <path transform="matrix(-1,0,0,1,-761.650024,375.850006)" style="stroke:#000000;stroke-width:0.05mm;fill:none" d="M-13.4,136.300003L-21.799999,136.300003L-21.799999,132.899994L-28.6,132.899994L-28.6,136.300003L-35.400002,136.300003L-35.400002,132.899994L-42.200001,132.899994L-42.200001,136.300003L-49,136.300003L-49,132.899994L-55.799999,132.899994L-55.799999,136.300003L-62.599998,136.300003L-62.599998,132.899994L-69.400002,132.899994L-69.400002,136.300003L-76.199997,136.300003L-76.199997,132.899994L-83,132.899994L-83,136.300003L-89.800003,136.300003L-89.800003,132.899994L-96.599998,132.899994L-96.599998,136.300003L-103.400002,136.300003L-103.400002,132.899994L-110.199997,132.899994L-110.199997,136.300003L-117,136.300003L-117,132.899994L-123.800003,132.899994L-123.800003,136.300003L-130.600006,136.300003L-130.600006,132.899994L-137.399994,132.899994L-137.399994,136.300003L-144.199997,136.300003L-144.199997,132.899994L-151,132.899994L-151,136.300003L-159.399994,136.300003L-162.800003,136.300003L-162.800003,132.899994L-162.800003,123.400002L-162.800003,113.900002L-162.800003,110.5L-159.399994,110.5L-151,110.5L-151,113.900002L-144.199997,113.900002L-144.199997,110.5L-137.399994,110.5L-137.399994,113.900002L-130.600006,113.900002L-130.600006,110.5L-123.800003,110.5L-123.800003,113.900002L-117,113.900002L-117,110.5L-110.199997,110.5L-110.199997,113.900002L-103.400002,113.900002L-103.400002,110.5L-96.599998,110.5L-96.599998,113.900002L-89.800003,113.900002L-89.800003,110.5L-83,110.5L-83,113.900002L-76.199997,113.900002L-76.199997,110.5L-69.400002,110.5L-69.400002,113.900002L-62.599998,113.900002L-62.599998,110.5L-55.799999,110.5L-55.799999,113.900002L-49,113.900002L-49,110.5L-42.200001,110.5L-42.200001,113.900002L-35.400002,113.900002L-35.400002,110.5L-28.6,110.5L-28.6,113.900002L-21.799999,113.900002L-21.799999,110.5L-13.4,110.5L-10,110.5L-10,113.900002L-10,123.400002L-10,132.899994L-10,136.300003L-13.4,136.300003z"/>
    <path transform="matrix(-1,0,0,1,-761.650024,375.850006)" style="stroke:#000000;stroke-width:0.05mm;fill:none" d="M-167.899994,136.300003L-176.350006,136.300003L-176.350006,132.899994L-183.149994,132.899994L-183.149994,136.300003L-189.949997,136.300003L-189.949997,132.899994L-196.75,132.899994L-196.75,136.300003L-203.550003,136.300003L-203.550003,132.899994L-210.350006,132.899994L-210.350006,136.300003L-217.149994,136.300003L-217.149994,132.899994L-223.949997,132.899994L-223.949997,136.300003L-232.399994,136.300003L-232.399994,132.899994L-232.399994,123.400002L-232.399994,113.900002L-232.399994,110.5L-223.949997,110.5L-223.949997,113.900002L-217.149994,113.900002L-217.149994,110.5L-210.350006,110.5L-210.350006,113.900002L-203.550003,113.900002L-203.550003,110.5L-196.75,110.5L-196.75,113.900002L-189.949997,113.900002L-189.949997,110.5L-183.149994,110.5L-183.149994,113.900002L-176.350006,113.900002L-176.350006,110.5L-167.899994,110.5L-167.899994,113.900002L-167.899994,123.400002L-167.899994,132.899994L-167.899994,136.300003z"/>
    <path transform="matrix(-1,0,0,1,-761.650024,375.850006)" style="stroke:#000000;stroke-width:0.05mm;fill:none" d="M-167.899994,108.800003L-176.350006,108.800003L-176.350006,105.400002L-183.149994,105.400002L-183.149994,108.800003L-189.949997,108.800003L-189.949997,105.400002L-196.75,105.400002L-196.75,108.800003L-203.550003,108.800003L-203.550003,105.400002L-210.350006,105.400002L-210.350006,108.800003L-217.149994,108.800003L-217.149994,105.400002L-223.949997,105.400002L-223.949997,108.800003L-232.399994,108.800003L-232.399994,105.400002L-232.399994,95.900002L-232.399994,86.400002L-232.399994,83L-223.949997,83L-223.949997,86.400002L-217.149994,86.400002L-217.149994,83L-210.350006,83L-210.350006,86.400002L-203.550003,86.400002L-203.550003,83L-196.75,83L-196.75,86.400002L-189.949997,86.400002L-189.949997,83L-183.149994,83L-183.149994,86.400002L-176.350006,86.400002L-176.350006,83L-167.899994,83L-167.899994,86.400002L-167.899994,95.900002L-167.899994,105.400002L-167.899994,108.800003z"/>
    <path transform="matrix(-1,0,0,1,-761.650024,375.850006)" style="stroke:#000000;stroke-width:0.05mm;fill:none" d="M-13.4,108.800003L-21.799999,108.800003L-21.799999,105.400002L-28.6,105.400002L-28.6,108.800003L-35.400002,108.800003L-35.400002,105.400002L-42.200001,105.400002L-42.200001,108.800003L-49,108.800003L-49,105.400002L-55.799999,105.400002L-55.799999,108.800003L-62.599998,108.800003L-62.599998,105.400002L-69.400002,105.400002L-69.400002,108.800003L-76.199997,108.800003L-76.199997,105.400002L-83,105.400002L-83,108.800003L-89.800003,108.800003L-89.800003,105.400002L-96.599998,105.400002L-96.599998,108.800003L-103.400002,108.800003L-103.400002,105.400002L-110.199997,105.400002L-110.199997,108.800003L-117,108.800003L-117,105.400002L-123.800003,105.400002L-123.800003,108.800003L-130.600006,108.800003L-130.600006,105.400002L-137.399994,105.400002L-137.399994,108.800003L-144.199997,108.800003L-144.199997,105.400002L-151,105.400002L-151,108.800003L-159.399994,108.800003L-162.800003,108.800003L-162.800003,105.400002L-162.800003,95.900002L-162.800003,86.400002L-162.800003,83L-159.399994,83L-151,83L-151,86.400002L-144.199997,86.400002L-144.199997,83L-137.399994,83L-137.399994,86.400002L-130.600006,86.400002L-130.600006,83L-123.800003,83L-123.800003,86.400002L-117,86.400002L-117,83L-110.199997,83L-110.199997,86.400002L-103.400002,86.400002L-103.400002,83L-96.599998,83L-96.599998,86.400002L-89.800003,86.400002L-89.800003,83L-83,83L-83,86.400002L-76.199997,86.400002L-76.199997,83L-69.400002,83L-69.400002,86.400002L-62.599998,86.400002L-62.599998,83L-55.799999,83L-55.799999,86.400002L-49,86.400002L-49,83L-42.200001,83L-42.200001,86.400002L-35.400002,86.400002L-35.400002,83L-28.6,83L-28.6,86.400002L-21.799999,86.400002L-21.799999,83L-13.4,83L-10,83L-10,86.400002L-10,95.900002L-10,105.400002L-10,108.800003L-13.4,108.800003z"/>
    <path transform="matrix(-1,0,0,1,-761.650024,375.850006)" style="stroke:#000000;stroke-width:0.05mm;fill:none" d="M-13.4,77.900002L-21.799999,77.900002L-21.799999,81.300003L-28.6,81.300003L-28.6,77.900002L-35.400002,77.900002L-35.400002,81.300003L-42.200001,81.300003L-42.200001,77.900002L-49,77.900002L-49,81.300003L-55.799999,81.300003L-55.799999,77.900002L-62.599998,77.900002L-62.599998,81.300003L-69.400002,81.300003L-69.400002,77.900002L-76.199997,77.900002L-76.199997,81.300003L-83,81.300003L-83,77.900002L-89.800003,77.900002L-89.800003,81.300003L-96.599998,81.300003L-96.599998,77.900002L-103.400002,77.900002L-103.400002,81.300003L-110.199997,81.300003L-110.199997,77.900002L-117,77.900002L-117,81.300003L-123.800003,81.300003L-123.800003,77.900002L-130.600006,77.900002L-130.600006,81.300003L-137.399994,81.300003L-137.399994,77.900002L-144.199997,77.900002L-144.199997,81.300003L-151,81.300003L-151,77.900002L-159.399994,77.900002L-159.399994,69.449997L-162.800003,69.449997L-162.800003,62.650002L-159.399994,62.650002L-159.399994,55.849998L-162.800003,55.849998L-162.800003,49.049999L-159.399994,49.049999L-159.399994,42.25L-162.800003,42.25L-162.800003,35.450001L-159.399994,35.450001L-159.399994,28.65L-162.800003,28.65L-162.800003,21.85L-159.399994,21.85L-159.399994,13.4L-151,13.4L-151,10L-144.199997,10L-144.199997,13.4L-137.399994,13.4L-137.399994,10L-130.600006,10L-130.600006,13.4L-123.800003,13.4L-123.800003,10L-117,10L-117,13.4L-110.199997,13.4L-110.199997,10L-103.400002,10L-103.400002,13.4L-96.599998,13.4L-96.599998,10L-89.800003,10L-89.800003,13.4L-83,13.4L-83,10L-76.199997,10L-76.199997,13.4L-69.400002,13.4L-69.400002,10L-62.599998,10L-62.599998,13.4L-55.799999,13.4L-55.799999,10L-49,10L-49,13.4L-42.200001,13.4L-42.200001,10L-35.400002,10L-35.400002,13.4L-28.6,13.4L-28.6,10L-21.799999,10L-21.799999,13.4L-13.4,13.4L-13.4,21.85L-10,21.85L-10,28.65L-13.4,28.65L-13.4,35.450001L-10,35.450001L-10,42.25L-13.4,42.25L-13.4,49.049999L-10,49.049999L-10,55.849998L-13.4,55.849998L-13.4,62.650002L-10,62.650002L-10,69.449997L-13.4,69.449997L-13.4,77.900002z"/>
    <path transform="matrix(-1,0,0,1,-761.650024,375.850006)" style="stroke:#000000;stroke-width:0.05mm;fill:none" d="M-167.899994,77.900002L-176.300003,77.900002L-176.300003,81.300003L-183.100006,81.300003L-183.100006,77.900002L-189.899994,77.900002L-189.899994,81.300003L-196.699997,81.300003L-196.699997,77.900002L-203.5,77.900002L-203.5,81.300003L-210.300003,81.300003L-210.300003,77.900002L-217.100006,77.900002L-217.100006,81.300003L-223.899994,81.300003L-223.899994,77.900002L-230.699997,77.900002L-230.699997,81.300003L-237.5,81.300003L-237.5,77.900002L-244.300003,77.900002L-244.300003,81.300003L-251.100006,81.300003L-251.100006,77.900002L-257.899994,77.900002L-257.899994,81.300003L-264.700012,81.300003L-264.700012,77.900002L-271.5,77.900002L-271.5,81.300003L-278.299988,81.300003L-278.299988,77.900002L-285.100006,77.900002L-285.100006,81.300003L-291.899994,81.300003L-291.899994,77.900002L-298.700012,77.900002L-298.700012,81.300003L-305.5,81.300003L-305.5,77.900002L-313.899994,77.900002L-313.899994,69.449997L-317.299988,69.449997L-317.299988,62.650002L-313.899994,62.650002L-313.899994,55.849998L-317.299988,55.849998L-317.299988,49.049999L-313.899994,49.049999L-313.899994,42.25L-317.299988,42.25L-317.299988,35.450001L-313.899994,35.450001L-313.899994,28.65L-317.299988,28.65L-317.299988,21.85L-313.899994,21.85L-313.899994,13.4L-305.5,13.4L-305.5,10L-298.700012,10L-298.700012,13.4L-291.899994,13.4L-291.899994,10L-285.100006,10L-285.100006,13.4L-278.299988,13.4L-278.299988,10L-271.5,10L-271.5,13.4L-264.700012,13.4L-264.700012,10L-257.899994,10L-257.899994,13.4L-251.100006,13.4L-251.100006,10L-244.300003,10L-244.300003,13.4L-237.5,13.4L-237.5,10L-230.699997,10L-230.699997,13.4L-223.899994,13.4L-223.899994,10L-217.100006,10L-217.100006,13.4L-210.300003,13.4L-210.300003,10L-203.5,10L-203.5,13.4L-196.699997,13.4L-196.699997,10L-189.899994,10L-189.899994,13.4L-183.100006,13.4L-183.100006,10L-176.300003,10L-176.300003,13.4L-167.899994,13.4L-167.899994,21.85L-164.5,21.85L-164.5,28.65L-167.899994,28.65L-167.899994,35.450001L-164.5,35.450001L-164.5,42.25L-167.899994,42.25L-167.899994,49.049999L-164.5,49.049999L-164.5,55.849998L-167.899994,55.849998L-167.899994,62.650002L-164.5,62.650002L-164.5,69.449997L-167.899994,69.449997L-167.899994,77.900002z"/>
    <rect transform="matrix(-1,0,0,1,-677.349976,410.25)" style="stroke:#000000;stroke-width:0.05mm;fill:none" x="-31" y="-7.5" width="62" height="15"/>
    <path transform="matrix(-1,0,0,1,0,0)" style="stroke:#000000;stroke-width:0.05mm;fill:none" d="M620.472656,394.316406C621.131226,394.423218,621.626282,394.977753,621.648438,395.644531L621.648438,403.507813C621.749634,403.601929,621.84552,403.701538,621.9375,403.804688C624.020752,406.177399,623.867004,409.769806,621.589844,411.957031C619.317139,414.133087,615.73877,414.146606,613.449219,411.988281C611.179443,409.845367,610.973755,406.305084,612.980469,403.914063C613.10022,403.776337,613.223999,403.642212,613.351563,403.511719L613.351563,395.625C613.359863,395.50177,613.384277,395.380493,613.417969,395.261719C613.601257,394.706665,614.11145,394.327789,614.695313,394.300781L620.324219,394.300781L620.472656,394.316406z"/>
    <path transform="matrix(-1,0,0,1,0,0)" style="stroke:#000000;stroke-width:0.05mm;fill:none" d="M735.972656,394.316406C736.166809,394.351563,736.353271,394.421021,736.519531,394.527344C736.619568,394.59903,736.711365,394.681122,736.796875,394.769531C737.007996,395.014465,737.133301,395.321503,737.148438,395.644531L737.148438,403.507813C739.404663,405.729431,739.497986,409.337128,737.363281,411.675781C735.171204,414.078766,731.447693,414.256195,729.039063,412.070313C726.688599,409.944427,726.440796,406.339722,728.480469,403.914063C728.598572,403.774902,728.722534,403.640808,728.851563,403.511719L728.851563,395.625C728.859741,395.30014,728.990417,394.989044,729.214844,394.753906C729.436829,394.519806,729.728088,394.362396,730.046875,394.3125C730.096252,394.307281,730.145752,394.303741,730.195313,394.300781L735.824219,394.300781L735.972656,394.316406z"/>
</svg>
