<?xml version="1.0" encoding="UTF-8"?>
<svg xmlns="http://www.w3.org/2000/svg" width="1100.000mm" height="600.000mm" viewBox="-1153.000000 26.000000 1100.000000 600.000000">
    <path transform="matrix(-1,0,0,1,0,0)" style="stroke:#0000ff;stroke-width:0.05mm;fill:none" d="M194.035156,26.09375C193.1763,26.269911,192.388245,26.695217,191.769531,27.316406L180.777344,38.300781L169.890625,49.1875L153.816406,65.269531C152.981339,66.10067,152.508118,67.228088,152.5,68.40625L152.5,103.542969C152.529541,105.990967,154.505157,107.968292,156.953125,108L230.050781,108C232.491745,107.961098,234.460907,105.991737,234.5,103.550781L234.5,30.449219C234.478622,27.997877,232.494354,26.017094,230.042969,26L975.957031,26C973.508972,26.029383,971.531555,28.005106,971.5,30.453125L971.5,103.550781C971.538818,105.991653,973.508362,107.960228,975.949219,108L1049.050781,108C1051.501953,107.97789,1053.482422,105.994217,1053.5,103.542969L1053.5,68.40625C1053.488281,67.228729,1053.015869,66.102654,1052.183594,65.269531L1041.199219,54.277344L1030.3125,43.390625L1014.23053,27.316406C1013.397583,26.483709,1012.271423,26.011089,1011.093811,26L1135,26C1144.941162,26,1153,34.058868,1153,43.999992L1153,608C1153,617.941101,1144.941162,626,1135,626L71,626C61.058876,626,53,617.941101,53,608L53,44.000008C53,34.05888,61.058868,26.000004,71,26L194.90625,26C194.613663,26.005125,194.322128,26.03651,194.035156,26.09375z"/>
</svg>
