<?xml version="1.0" encoding="utf-8"?>
<!-- Generator: Adobe Illustrator 24.0.3, SVG Export Plug-In . SVG Version: 6.00 Build 0)  -->
<svg version="1.1" xmlns="http://www.w3.org/2000/svg" xmlns:xlink="http://www.w3.org/1999/xlink" x="0px" y="0px"
	 viewBox="0 0 512 512" style="enable-background:new 0 0 512 512;" xml:space="preserve">
<style type="text/css">
	.st0{fill:#FFFFFF;}
</style>
<g id="Lag_1" focusable="false">
	<g id="XMLID_2_">
		<g>
			<circle class="st0" cx="256" cy="160" r="42"/>
			<path d="M256,8c137,0,248,111.1,248,248c0,137-111,248-248,248S8,393,8,256C8,119.1,119,8,256,8z M298,160c0-23.2-18.8-42-42-42
				s-42,18.8-42,42c0,23.2,18.8,42,42,42S298,183.2,298,160z"/>
		</g>
		<g>
		</g>
	</g>
	<g id="XMLID_1_">
		<g>
			<path class="st0" d="M312,348v24c0,6.6-5.4,12-12,12h-88c-6.6,0-12-5.4-12-12v-24c0-6.6,5.4-12,12-12h12v-64h-12
				c-6.6,0-12-5.4-12-12v-24c0-6.6,5.4-12,12-12h64c6.6,0,12,5.4,12,12v100h12C306.6,336,312,341.4,312,348z"/>
		</g>
		<g>
		</g>
	</g>
</g>
<g id="Lag_2">
</g>
</svg>
